<?xml version="1.0" standalone="no"?>
<!DOCTYPE svg PUBLIC "-//W3C//DTD SVG 20010904//EN"
 "http://www.w3.org/TR/2001/REC-SVG-20010904/DTD/svg10.dtd">
<svg version="1.0" xmlns="http://www.w3.org/2000/svg"
 width="1083.000000pt" height="1280.000000pt" viewBox="0 0 1083.000000 1280.000000"
 preserveAspectRatio="xMidYMid meet">
<metadata>
Created by potrace 1.15, written by Peter Selinger 2001-2017
</metadata>
<g transform="translate(0.000000,1280.000000) scale(0.100000,-0.100000)"
fill="#000000" stroke="none">
<path d="M4675 12310 l245 -490 2465 0 2465 0 245 490 245 490 -2955 0 -2955
0 245 -490z"/>
<path d="M4920 10703 c0 -613 6 -791 36 -993 102 -707 367 -1292 764 -1690
350 -351 782 -552 1319 -615 147 -17 501 -20 652 -5 740 74 1311 427 1691
1046 253 410 422 980 458 1542 5 81 10 414 10 740 l0 592 -2465 0 -2465 0 0
-617z"/>
<path d="M845 9851 c-218 -36 -405 -130 -555 -281 -126 -125 -210 -271 -263
-458 l-22 -77 -3 -2080 c-2 -1471 0 -2105 8 -2164 42 -322 248 -606 545 -750
159 -78 239 -96 430 -95 l160 0 1394 312 c766 172 1395 312 1397 312 2 0 5
-1026 6 -2281 l3 -2281 101 119 c55 65 1081 1274 2280 2688 1199 1414 2453
2892 2787 3285 334 393 607 718 607 721 0 7 -160 45 -250 59 -42 6 -779 10
-2066 10 l-2001 0 -304 -65 c-167 -36 -481 -104 -696 -150 -520 -112 -1094
-236 -1548 -334 -203 -44 -478 -103 -610 -131 -132 -28 -248 -53 -257 -56 -17
-5 -18 76 -21 1433 l-2 1438 -23 83 c-66 247 -213 455 -414 586 -166 108 -313
155 -508 161 -69 2 -147 0 -175 -4z"/>
<path d="M10498 6094 c-46 -55 -577 -679 -1178 -1389 -602 -710 -1724 -2032
-2494 -2940 -769 -907 -1421 -1676 -1449 -1708 l-49 -57 2751 0 2751 0 -3
2777 -3 2778 -22 100 c-42 183 -115 369 -195 499 l-24 38 -85 -98z"/>
</g>
</svg>
